<svg width="50" height="50" viewBox="0 0 50 50" fill="none" xmlns="http://www.w3.org/2000/svg">
<path d="M38.8889 18.0556H11.1111V41.6667H38.8889V18.0556Z" fill="#9B9B9A"/>
<path d="M40.2778 15.2778H9.72223V18.0556H40.2778V15.2778Z" fill="#D0CFCE"/>
<path d="M13.5417 18.0556H14.967V41.6667H13.5417" fill="white"/>
<path d="M17.3147 18.0556H18.7297V41.6667H17.3147" fill="white"/>
<path d="M32.6854 41.6667H31.2623V18.0556H32.6854" fill="white"/>
<path d="M36.4583 41.6667H35.0567V18.0556H36.4583" fill="white"/>
<path d="M25 8.33334L13.1945 15.2778H36.8056L25 8.33334Z" fill="#D0CFCE"/>
<path d="M28.125 34.7222H21.875V41.6667H28.125V34.7222Z" fill="#92D3F5"/>
<path d="M25 27.7778C26.9176 27.7778 28.4722 26.2232 28.4722 24.3056C28.4722 22.3879 26.9176 20.8333 25 20.8333C23.0823 20.8333 21.5278 22.3879 21.5278 24.3056C21.5278 26.2232 23.0823 27.7778 25 27.7778Z" fill="#FCEA2B"/>
<path d="M25.6585 23.7932C25.5906 23.5291 25.2971 23.3304 24.9454 23.3304C24.5433 23.3304 24.2174 23.5899 24.2174 23.91C24.2174 24.2301 24.5433 24.4897 24.9454 24.4897L24.9306 24.4918C25.3326 24.4918 25.6586 24.7513 25.6586 25.0715C25.6586 25.3916 25.3327 25.6511 24.9306 25.6511C24.5788 25.6511 24.2852 25.4524 24.2174 25.1883" stroke="#F4AA41" stroke-miterlimit="10" stroke-linecap="round" stroke-linejoin="round"/>
<path d="M24.9379 23.3304V22.7778" stroke="#F4AA41" stroke-miterlimit="10" stroke-linecap="round" stroke-linejoin="round"/>
<path d="M24.9379 26.2037V25.6511" stroke="#F4AA41" stroke-miterlimit="10" stroke-linecap="round" stroke-linejoin="round"/>
<path d="M38.8889 18.0556H11.1111V41.6667H38.8889V18.0556Z" stroke="black" stroke-width="2" stroke-miterlimit="10" stroke-linecap="round" stroke-linejoin="round"/>
<path d="M40.2778 15.2778H9.72223V18.0556H40.2778V15.2778Z" stroke="black" stroke-width="2" stroke-miterlimit="10" stroke-linecap="round" stroke-linejoin="round"/>
<path d="M13.5417 18.0556H15.625V41.6667H13.5417" stroke="black" stroke-width="2" stroke-miterlimit="10" stroke-linecap="round" stroke-linejoin="round"/>
<path d="M17.3147 18.0556H19.398V41.6667H17.3147" stroke="black" stroke-width="2" stroke-miterlimit="10" stroke-linecap="round" stroke-linejoin="round"/>
<path d="M32.6853 41.6667H30.602V18.0556H32.6853" stroke="black" stroke-width="2" stroke-miterlimit="10" stroke-linecap="round" stroke-linejoin="round"/>
<path d="M36.4583 41.6667H34.375V18.0556H36.4583" stroke="black" stroke-width="2" stroke-miterlimit="10" stroke-linecap="round" stroke-linejoin="round"/>
<path d="M25 8.33334L13.1945 15.1036H36.8056L25 8.33334Z" stroke="black" stroke-width="2" stroke-miterlimit="10" stroke-linecap="round" stroke-linejoin="round"/>
<path d="M28.125 34.7222H21.875V41.6667H28.125V34.7222Z" stroke="black" stroke-width="2" stroke-miterlimit="10" stroke-linecap="round" stroke-linejoin="round"/>
<path d="M25 41.6667V34.7222" stroke="black" stroke-width="2" stroke-miterlimit="10" stroke-linecap="round" stroke-linejoin="round"/>
<path d="M25 27.7778C26.9176 27.7778 28.4722 26.2232 28.4722 24.3056C28.4722 22.3879 26.9176 20.8333 25 20.8333C23.0823 20.8333 21.5278 22.3879 21.5278 24.3056C21.5278 26.2232 23.0823 27.7778 25 27.7778Z" stroke="black" stroke-width="2" stroke-miterlimit="10"/>
<path d="M25.6585 23.7932C25.5906 23.5291 25.2971 23.3304 24.9454 23.3304C24.5433 23.3304 24.2174 23.5899 24.2174 23.91C24.2174 24.2301 24.5433 24.4897 24.9454 24.4897L24.9306 24.4918C25.3326 24.4918 25.6586 24.7513 25.6586 25.0715C25.6586 25.3916 25.3327 25.6511 24.9306 25.6511C24.5788 25.6511 24.2852 25.4524 24.2174 25.1883" stroke="black" stroke-miterlimit="10" stroke-linecap="round" stroke-linejoin="round"/>
<path d="M24.9379 23.3304V22.7778" stroke="black" stroke-miterlimit="10" stroke-linecap="round" stroke-linejoin="round"/>
<path d="M24.9379 26.2037V25.6511" stroke="black" stroke-miterlimit="10" stroke-linecap="round" stroke-linejoin="round"/>
</svg>
