<svg width="50" height="50" viewBox="0 0 50 50" fill="none" xmlns="http://www.w3.org/2000/svg">
<path d="M42.3984 15.9984H10.1662V35.3597H42.3984V15.9984Z" fill="white"/>
<path d="M37.0797 33.8295H15.4758V35.8694H37.0797V33.8295Z" fill="#5C9E31"/>
<path d="M35.3382 15.5109H13.7343V17.5508H35.3382V15.5109Z" fill="#5C9E31"/>
<path d="M41.2222 14.3961V14.8197H39.0972C39.0694 14.4656 38.7708 14.1808 38.4096 14.1808H16.25C15.8889 14.1808 15.5903 14.4656 15.5625 14.8197H9.38886V15.2781H8.98608V36.5419H15.5555C15.5555 36.9239 15.868 37.2364 16.25 37.2364H38.4097C38.7916 37.2364 39.1041 36.9239 39.1041 36.5419H43.2708V14.3961H41.2222ZM41.2222 31.8822C41.1319 31.8753 41.0278 31.8753 40.9236 31.8753C39.4305 31.8753 38.1805 33.0419 38.1111 34.5211H14.118C14.0555 33.0419 12.8125 31.8753 11.3055 31.8753C11.2083 31.8753 11.118 31.8753 11.0347 31.8822V19.4447C11.118 19.4517 11.2083 19.4517 11.3055 19.4517C12.8055 19.4517 14.0416 18.3058 14.118 16.8406H38.1111C38.2014 18.3058 39.4375 19.4517 40.9236 19.4517C41.0278 19.4517 41.1319 19.4517 41.2222 19.4447V31.8822Z" fill="#5C9E31"/>
<path d="M25.9306 32.4199C32.1327 32.4199 37.1605 29.308 37.1605 25.4693C37.1605 21.6306 32.1327 18.5187 25.9306 18.5187C19.7284 18.5187 14.7006 21.6306 14.7006 25.4693C14.7006 29.308 19.7284 32.4199 25.9306 32.4199Z" fill="#5C9E31" stroke="#5C9E31" stroke-width="2" stroke-miterlimit="10"/>
<path d="M31.9635 15.5403V35.8775C31.9635 35.9506 31.9497 36.0171 31.9288 36.0837C31.8385 36.3496 31.5747 36.5426 31.2691 36.5426H20.6163C20.3108 36.5426 20.0469 36.3496 19.9566 36.0837C19.9358 36.0171 19.9219 35.9507 19.9219 35.8775V15.5403C19.9219 15.4672 19.9358 15.4007 19.9566 15.3342C20.0469 15.0681 20.3108 14.8753 20.6163 14.8753H31.2691C31.5747 14.8753 31.8385 15.0681 31.9288 15.3342C31.9497 15.4006 31.9635 15.4671 31.9635 15.5403Z" fill="#D0CFCE"/>
<path d="M33.8564 20.5453C35.8974 21.8039 37.1605 23.5453 37.1605 25.4693C37.1605 27.4099 35.8756 29.1647 33.8036 30.4256" fill="#5C9E31"/>
<path d="M17.1805 29.8263C15.6292 28.6344 14.7007 27.119 14.7007 25.4693C14.7007 23.6843 15.7878 22.0565 17.5747 20.8256" fill="#5C9E31"/>
<path d="M17.4358 34.5211H16.2083H14.118C14.0555 33.042 12.8124 31.8753 11.3055 31.8753C11.2083 31.8753 11.118 31.8753 11.0347 31.8822V19.4447C11.118 19.4517 11.2083 19.4517 11.3055 19.4517C12.8055 19.4517 14.0416 18.3058 14.118 16.8406H17.1631M34.7413 16.8406H38.1111C38.2013 18.3058 39.4374 19.4517 40.9236 19.4517C41.0277 19.4517 41.1319 19.4517 41.2222 19.4447V31.8822C41.1319 31.8753 41.0277 31.8753 40.9236 31.8753C39.4305 31.8753 38.1805 33.042 38.1111 34.5211H34.7413V16.8406Z" stroke="black" stroke-width="2" stroke-miterlimit="10" stroke-linecap="round" stroke-linejoin="round"/>
<path d="M31.9635 15.5403V35.8775C31.9635 35.9506 31.9497 36.0171 31.9288 36.0837C31.8385 36.3496 31.5747 36.5426 31.2691 36.5426H20.6163C20.3108 36.5426 20.0469 36.3496 19.9566 36.0837C19.9358 36.0171 19.9219 35.9507 19.9219 35.8775V15.5403C19.9219 15.4672 19.9358 15.4007 19.9566 15.3342C20.0469 15.0681 20.3108 14.8753 20.6163 14.8753H31.2691C31.5747 14.8753 31.8385 15.0681 31.9288 15.3342C31.9497 15.4006 31.9635 15.4671 31.9635 15.5403Z" stroke="black" stroke-width="2" stroke-miterlimit="10" stroke-linecap="round" stroke-linejoin="round"/>
<path d="M17.4357 36.5425H9.68053C9.29699 36.5425 8.98608 36.2316 8.98608 35.848V15.5697C8.98608 15.1862 9.29699 14.8753 9.68053 14.8753H17.2066" stroke="black" stroke-width="2" stroke-miterlimit="10" stroke-linecap="round" stroke-linejoin="round"/>
<path d="M34.5638 14.8753H42.5763C42.9599 14.8753 43.2708 15.1862 43.2708 15.5697V35.848C43.2708 36.2316 42.9599 36.5425 42.5763 36.5425H34.5641" stroke="black" stroke-width="2" stroke-miterlimit="10" stroke-linecap="round" stroke-linejoin="round"/>
<path d="M33.8564 20.5453C35.8974 21.8039 37.1605 23.5453 37.1605 25.4693C37.1605 27.4099 35.8756 29.1647 33.8036 30.4256" stroke="black" stroke-width="2" stroke-miterlimit="10" stroke-linecap="round"/>
<path d="M17.1805 29.8263C15.6292 28.6344 14.7007 27.119 14.7007 25.4693C14.7007 23.6843 15.7878 22.0565 17.5747 20.8256" stroke="black" stroke-width="2" stroke-miterlimit="10" stroke-linecap="round"/>
<path d="M27.5436 23.7644C27.3916 23.1732 26.7346 22.7284 25.9471 22.7284H25.947C25.047 22.7284 24.3174 23.3094 24.3174 24.026C24.3174 24.7426 25.047 25.3235 25.947 25.3235L25.914 25.3283C26.814 25.3283 27.5436 25.9093 27.5436 26.6259C27.5436 27.3425 26.814 27.9235 25.914 27.9235C25.1265 27.9235 24.4694 27.4787 24.3174 26.8874" stroke="black" stroke-width="2" stroke-miterlimit="10" stroke-linecap="round" stroke-linejoin="round"/>
<path d="M25.9305 22.7284V21.4913" stroke="black" stroke-width="2" stroke-miterlimit="10" stroke-linecap="round" stroke-linejoin="round"/>
<path d="M25.9305 29.1606V27.9235" stroke="black" stroke-width="2" stroke-miterlimit="10" stroke-linecap="round" stroke-linejoin="round"/>
</svg>
