<svg width="50" height="50" viewBox="0 0 50 50" fill="none" xmlns="http://www.w3.org/2000/svg">
<path d="M41.6381 36.6627H8.36186C7.97832 36.6627 7.66742 36.3518 7.66742 35.9683V15.4495C7.66742 15.066 7.97832 14.7551 8.36186 14.7551H41.6381C42.0217 14.7551 42.3326 15.066 42.3326 15.4495V35.9683C42.3326 36.3518 42.0217 36.6627 41.6381 36.6627Z" fill="#92D3F5"/>
<path d="M41.6667 21.5278H8.33333C7.94979 21.5278 7.63889 21.2169 7.63889 20.8333V18.8889C7.63889 18.5053 7.94979 18.1944 8.33333 18.1944H41.6667C42.0502 18.1944 42.3611 18.5053 42.3611 18.8889V20.8333C42.3611 21.2169 42.0502 21.5278 41.6667 21.5278Z" fill="#3F3F3F"/>
<path d="M14.5822 33.1944H13.2301C12.0742 33.1944 11.1284 32.2487 11.1284 31.0928V29.7406C11.1284 28.5847 12.0742 27.6389 13.2301 27.6389H14.5822C15.7381 27.6389 16.6839 28.5847 16.6839 29.7406V31.0928C16.684 32.2487 15.7382 33.1944 14.5822 33.1944Z" fill="#FCEA2B"/>
<path d="M41.6381 36.6627H8.36186C7.97832 36.6627 7.66742 36.3518 7.66742 35.9683V15.4495C7.66742 15.066 7.97832 14.7551 8.36186 14.7551H41.6381C42.0217 14.7551 42.3326 15.066 42.3326 15.4495V35.9683C42.3326 36.3518 42.0217 36.6627 41.6381 36.6627Z" stroke="black" stroke-width="2" stroke-miterlimit="10"/>
<path d="M41.6667 21.5278H8.33333C7.94979 21.5278 7.63889 21.2169 7.63889 20.8333V18.8889C7.63889 18.5053 7.94979 18.1944 8.33333 18.1944H41.6667C42.0502 18.1944 42.3611 18.5053 42.3611 18.8889V20.8333C42.3611 21.2169 42.0502 21.5278 41.6667 21.5278Z" stroke="black" stroke-width="2" stroke-miterlimit="10"/>
<path d="M14.5822 33.1944H13.2301C12.0742 33.1944 11.1284 32.2487 11.1284 31.0928V29.7406C11.1284 28.5847 12.0742 27.6389 13.2301 27.6389H14.5822C15.7381 27.6389 16.6839 28.5847 16.6839 29.7406V31.0928C16.684 32.2487 15.7382 33.1944 14.5822 33.1944Z" stroke="black" stroke-width="2" stroke-miterlimit="10" stroke-linecap="round" stroke-linejoin="round"/>
</svg>
