<svg width="50" height="50" viewBox="0 0 50 50" fill="none" xmlns="http://www.w3.org/2000/svg">
<path d="M25.0508 40.7792C33.7838 40.7792 40.8634 33.6996 40.8634 24.9665C40.8634 16.2334 33.7838 9.15388 25.0508 9.15388C16.3177 9.15388 9.23813 16.2334 9.23813 24.9665C9.23813 33.6996 16.3177 40.7792 25.0508 40.7792Z" fill="#749388"/>
<path d="M25.0508 15.5047V34.4284" stroke="black" stroke-width="2" stroke-miterlimit="10" stroke-linecap="round" stroke-linejoin="round"/>
<path d="M34.5126 24.9665H15.5888" stroke="black" stroke-width="2" stroke-miterlimit="10" stroke-linecap="round" stroke-linejoin="round"/>
<path d="M25.0508 40.9387C33.872 40.9387 41.023 33.7877 41.023 24.9665C41.023 16.1453 33.872 8.99431 25.0508 8.99431C16.2296 8.99431 9.07854 16.1453 9.07854 24.9665C9.07854 33.7877 16.2296 40.9387 25.0508 40.9387Z" stroke="black" stroke-width="2" stroke-miterlimit="10" stroke-linecap="round" stroke-linejoin="round"/>
</svg>
